<svg width="102" height="102" viewBox="0 0 102 102" fill="none" xmlns="http://www.w3.org/2000/svg">
<g clip-path="url(#clip0_60_50)">
<path d="M95.3188 9.24988H6.68122C2.99119 9.24988 1.90735e-06 12.2411 1.90735e-06 15.9311V72.0534C1.90735e-06 75.7432 2.99141 78.7346 6.68122 78.7346H36.1009L45.8871 90.3695C47.1565 91.8788 49.0279 92.7502 51.0002 92.7502C52.9725 92.7502 54.8437 91.879 56.1134 90.3695L65.8996 78.7346H95.3188C99.0086 78.7346 102 75.7432 102 72.0534V15.9311C102 12.2411 99.0086 9.24988 95.3188 9.24988ZM72.1385 62.6997H18.4522C16.6073 62.6997 15.1116 61.204 15.1116 59.359C15.1116 57.5141 16.6073 56.0184 18.4522 56.0184H72.1385C73.9834 56.0184 75.4791 57.5141 75.4791 59.359C75.4791 61.204 73.9834 62.6997 72.1385 62.6997ZM15.1116 44.2642C15.1116 42.4193 16.6073 40.9235 18.4522 40.9235H59.676C61.5209 40.9235 63.0166 42.4193 63.0166 44.2642C63.0166 46.1091 61.5209 47.6048 59.676 47.6048H18.4522C16.6073 47.6048 15.1116 46.1091 15.1116 44.2642ZM83.5478 32.5094H18.4522C16.6073 32.5094 15.1116 31.0137 15.1116 29.1688C15.1116 27.3239 16.6073 25.8282 18.4522 25.8282H83.5476C85.3925 25.8282 86.8882 27.3239 86.8882 29.1688C86.8884 31.0137 85.3927 32.5094 83.5478 32.5094Z" fill="black"/>
</g>
<defs>
<clipPath id="clip0_60_50">
<rect width="102" height="102" fill="white"/>
</clipPath>
</defs>
</svg>
